<svg width="59" height="40" viewBox="0 0 59 40" fill="none" xmlns="http://www.w3.org/2000/svg">
<defs>
<linearGradient id="logoGradient" x1="0%" y1="0%" x2="100%" y2="100%">
<stop offset="0%" style="stop-color:#6366f1;stop-opacity:1" />
<stop offset="50%" style="stop-color:#a855f7;stop-opacity:1" />
<stop offset="100%" style="stop-color:#ec4899;stop-opacity:1" />
</linearGradient>
</defs>
<path d="M10 15.1533L56.0254 27.3643C57.7788 27.8295 59 29.4164 59 31.2305V40H49V35.8457L29.501 30.6729L10 35.8457V40H0V31.2305C4.53996e-06 29.4164 1.22118 27.8295 2.97461 27.3643L10.001 25.499L2.97461 23.6357C1.22116 23.1706 3.02567e-05 21.5836 0 19.7695V14C0 11.7909 1.79086 10 4 10H10V15.1533Z" fill="url(#logoGradient)"></path>
<path d="M55 10C57.2091 10 59 11.7909 59 14V20H49V10H55Z" fill="url(#logoGradient)"></path>
<path d="M45 0C47.2091 0 49 1.79086 49 4V10H10V4C10 1.79086 11.7909 2.81866e-08 14 0H45Z" fill="url(#logoGradient)"></path>
</svg>